<?xml version="1.0" encoding="utf-8"?>
<!-- Generator: Adobe Illustrator 19.1.0, SVG Export Plug-In . SVG Version: 6.00 Build 0)  -->
<svg version="1.1" id="Layer_1" xmlns="http://www.w3.org/2000/svg" xmlns:xlink="http://www.w3.org/1999/xlink" x="0px" y="0px"
	 viewBox="0 0 1557.8 700.1" enable-background="new 0 0 1557.8 700.1" xml:space="preserve">
<rect fill="#FF0000" width="1557.8" height="700.1"/>
<g>
	<path fill="#FFFFFF" d="M288.7,495c18,0,35,0,53,0c0-71,0-142.4,0-213.4c0,0,0.2-0.6,0.2-1.6c24.2,0,43.8,0,67.8,0
		c0,18,0,172,0,215c18,0,35,0,53,0c0-43,0-87.1,0-130.4c0-9.2,0-18.3,0-27.5c0-0.7,0-1.4,0-2.1c1-37.7,31.5-67.5,69-67.5
		c37.9,0,69,30.8,69,69.5c0,22.2,0,44.3,0,66.5c0,30.3,0,61.4,0,91.4c30,0,59.9,0,89.8,0c18.3-25,36.6-50.3,55-75.3
		c-3-4.1-6-8.3-8.9-12.4c-7.6-10.4-15.5-20.9-23-31.3c-20.2,27.5-40.8,55-60.8,82.6c0-41,0-82,0-123c0-0.1,0-0.2,0-0.3
		c0-34-15-65.1-38.7-87.2c-9.8-9.1-20.9-16.7-33.2-22.2c-15-6.8-31.8-10.5-49.2-10.5c-25.7,0-49.9,8.1-68.9,21.9c0-3.6,0-6.3,0-10.3
		c-18,0-34.9,0-52.5,0c0,0-54.3,0-55.7,0c20.3-39,61.2-67.6,109.2-67.6c0-17.4,0-34.7,0-52.1c-97,0-175,78.8-175,174
		c0,0.1,0,0.2,0,0.3c0,16.8,0,33.5,0,50.3C288.7,386.1,288.7,441,288.7,495z"/>
	<g>
		<polygon fill="#FFFFFF" points="983.7,229 910.7,229 910.7,250 961.7,250 961.7,475 913.7,475 913.7,495 1032.7,495 1032.7,475 
			983.7,475 		"/>
		<rect x="958.7" y="122" fill="#FFFFFF" width="29" height="40"/>
		<path fill="#FFFFFF" d="M1165.8,221.9c-76.5,0-138.5,60.4-138.5,138.5c0,79.7,62.1,141.8,138.5,141.8
			c76.5,0,138.5-62.1,138.5-141.8C1304.4,282.3,1242.3,221.9,1165.8,221.9z M1165.8,480c-63.5,0-114.7-51.8-114.7-119.5
			c0-66.2,51.2-116.3,114.7-116.3c63.5,0,114.7,50.2,114.7,116.3C1280.5,428.2,1229.3,480,1165.8,480z"/>
	</g>
	<polygon fill="#FFFFFF" points="692.5,229 628.8,229 713.9,344.6 745.8,300.8 	"/>
	<polygon fill="#FFFFFF" points="792.8,361.5 890.6,229 826.7,229 729,361.4 827,494.8 890.8,494.6 	"/>
</g>
</svg>
